<svg width="501" height="52" viewBox="0 0 501 52" fill="none" xmlns="http://www.w3.org/2000/svg">
<g filter="url(#filter0_d_786_398898)">
<rect x="4" y="2" width="493" height="44" rx="8" fill="url(#paint0_linear_786_398898)" shape-rendering="crispEdges"/>
<path d="M31.8528 31.5H29.4288L27.8448 27.564H20.5008L18.9168 31.5H16.6368L22.9728 16.116H25.5168L31.8528 31.5ZM24.1728 18.42L21.2928 25.62H27.0768L24.1728 18.42ZM47.4476 19.716C50.1116 19.716 51.8396 21.516 51.8396 24.468V31.5H49.7036V24.804C49.7036 22.908 48.6716 21.708 46.9676 21.708C45.2396 21.708 44.1836 22.908 44.1836 24.804V31.5H42.0716V24.804C42.0716 22.908 41.0156 21.708 39.3116 21.708C37.5836 21.708 36.5516 22.908 36.5516 24.804V31.5H34.4156V20.004H36.5516V21.78C37.1996 20.508 38.3516 19.716 39.9116 19.716C41.7596 19.716 43.1516 20.652 43.7996 22.26C44.3516 20.772 45.5996 19.716 47.4476 19.716ZM64.5271 21.996V20.004H66.6631V31.5H64.5271V29.436C63.6631 30.852 62.2951 31.788 60.4951 31.788C57.3751 31.788 54.9271 29.22 54.9271 25.74C54.9271 22.332 57.2791 19.716 60.4951 19.716C62.2951 19.716 63.6631 20.58 64.5271 21.996ZM60.8071 29.796C62.9671 29.796 64.5271 27.972 64.5271 25.74C64.5271 23.484 62.9671 21.708 60.8071 21.708C58.6471 21.708 57.0631 23.484 57.0631 25.74C57.0631 27.972 58.6471 29.796 60.8071 29.796ZM69.8306 29.604L76.4066 21.9H69.9986V20.004H79.1666V21.9L72.5666 29.604H79.3106V31.5H69.8306V29.604ZM81.1771 25.74C81.1771 22.404 83.7451 19.716 87.0331 19.716C90.3451 19.716 92.9131 22.404 92.9131 25.74C92.9131 29.076 90.3451 31.788 87.0331 31.788C83.7451 31.788 81.1771 29.076 81.1771 25.74ZM90.7771 25.74C90.7771 23.484 89.2171 21.708 87.0571 21.708C84.8971 21.708 83.3131 23.484 83.3131 25.74C83.3131 27.972 84.8971 29.796 87.0571 29.796C89.2171 29.796 90.7771 27.972 90.7771 25.74ZM101.789 19.716C104.501 19.716 106.253 21.564 106.253 24.468V31.5H104.117V24.804C104.117 22.908 103.013 21.708 101.213 21.708C99.4128 21.708 98.3328 22.908 98.3328 24.804V31.5H96.1968V20.004H98.3328V21.708C98.9808 20.46 100.205 19.716 101.789 19.716ZM115.747 31.5V16.116H121.123C124.675 16.116 127.027 18.036 127.027 20.988C127.027 23.916 124.651 25.884 121.075 25.884H117.907V31.5H115.747ZM121.315 18.06H117.907V23.94H121.315C123.379 23.94 124.747 22.764 124.747 20.988C124.747 19.212 123.379 18.06 121.315 18.06ZM135.197 19.716C135.917 19.716 136.541 19.884 136.949 20.22L136.061 22.212C135.677 21.948 135.125 21.756 134.573 21.756C133.181 21.756 132.317 22.956 132.317 24.876V31.5H130.181V20.004H132.317V21.78C132.893 20.532 133.877 19.716 135.197 19.716ZM140.565 18.012C139.845 18.012 139.245 17.412 139.245 16.692C139.245 15.972 139.845 15.372 140.565 15.372C141.285 15.372 141.885 15.972 141.885 16.692C141.885 17.412 141.285 18.012 140.565 18.012ZM141.645 31.5H139.509V20.004H141.645V31.5ZM158.776 19.716C161.44 19.716 163.168 21.516 163.168 24.468V31.5H161.032V24.804C161.032 22.908 160 21.708 158.296 21.708C156.568 21.708 155.512 22.908 155.512 24.804V31.5H153.4V24.804C153.4 22.908 152.344 21.708 150.64 21.708C148.912 21.708 147.88 22.908 147.88 24.804V31.5H145.744V20.004H147.88V21.78C148.528 20.508 149.68 19.716 151.24 19.716C153.088 19.716 154.48 20.652 155.128 22.26C155.68 20.772 156.928 19.716 158.776 19.716ZM177.607 25.524C177.607 25.812 177.583 26.124 177.535 26.292H168.415C168.655 28.356 170.167 29.892 172.351 29.892C173.647 29.892 174.799 29.388 175.567 28.62L176.695 30.084C175.759 31.092 174.127 31.788 172.279 31.788C168.775 31.788 166.255 29.076 166.255 25.74C166.255 22.404 168.679 19.716 171.943 19.716C175.159 19.716 177.607 22.284 177.607 25.524ZM171.967 21.54C170.095 21.54 168.775 22.956 168.463 24.876H175.423C175.087 22.74 173.767 21.54 171.967 21.54ZM186.247 31.5V16.116H188.407V29.46H196.375V31.5H186.247ZM200.003 18.012C199.283 18.012 198.683 17.412 198.683 16.692C198.683 15.972 199.283 15.372 200.003 15.372C200.723 15.372 201.323 15.972 201.323 16.692C201.323 17.412 200.723 18.012 200.003 18.012ZM201.083 31.5H198.947V20.004H201.083V31.5ZM203.885 21.9V20.004H205.805V17.148H207.917V20.004H211.181V21.9H207.941V27.972C207.941 29.196 208.493 29.796 209.525 29.796C210.101 29.796 210.677 29.58 211.013 29.196L211.997 30.804C211.469 31.332 210.509 31.788 209.237 31.788C207.077 31.788 205.781 30.516 205.781 28.044V21.9H203.885ZM224.435 25.524C224.435 25.812 224.411 26.124 224.363 26.292H215.243C215.483 28.356 216.995 29.892 219.179 29.892C220.475 29.892 221.627 29.388 222.395 28.62L223.523 30.084C222.587 31.092 220.955 31.788 219.107 31.788C215.603 31.788 213.083 29.076 213.083 25.74C213.083 22.404 215.507 19.716 218.771 19.716C221.987 19.716 224.435 22.284 224.435 25.524ZM218.795 21.54C216.923 21.54 215.603 22.956 215.291 24.876H222.251C221.915 22.74 220.595 21.54 218.795 21.54ZM241.715 21.996V20.004H243.851V31.5H241.715V29.436C240.851 30.852 239.483 31.788 237.683 31.788C234.563 31.788 232.115 29.22 232.115 25.74C232.115 22.332 234.467 19.716 237.683 19.716C239.483 19.716 240.851 20.58 241.715 21.996ZM237.995 29.796C240.155 29.796 241.715 27.972 241.715 25.74C241.715 23.484 240.155 21.708 237.995 21.708C235.835 21.708 234.251 23.484 234.251 25.74C234.251 27.972 235.835 29.796 237.995 29.796ZM246.682 21.9V20.004H248.602V17.148H250.714V20.004H253.978V21.9H250.738V27.972C250.738 29.196 251.29 29.796 252.322 29.796C252.898 29.796 253.474 29.58 253.81 29.196L254.794 30.804C254.266 31.332 253.306 31.788 252.034 31.788C249.874 31.788 248.578 30.516 248.578 28.044V21.9H246.682ZM261.494 16.116H271.094V18.18H268.094C268.646 18.564 269.03 19.092 269.222 19.788H271.07V21.348H269.366C269.198 23.508 267.518 25.188 264.83 25.452L269.894 31.5H266.558L261.518 25.596V23.388H263.75C265.406 23.388 266.438 22.62 266.63 21.348H261.494V19.788H266.51C266.126 18.78 265.238 18.276 264.134 18.18H261.494V16.116ZM278.677 21.18C282.085 21.18 284.317 23.604 284.317 26.316C284.317 29.412 282.013 31.836 278.653 31.836C275.365 31.836 272.941 29.388 272.941 26.316C272.941 24.636 273.445 23.412 275.413 20.532L278.533 16.116H281.869L278.389 21.204C278.485 21.18 278.581 21.18 278.677 21.18ZM278.653 29.076C280.189 29.076 281.365 27.876 281.365 26.316C281.365 24.78 280.189 23.604 278.653 23.604C277.093 23.604 275.869 24.78 275.869 26.316C275.869 27.876 277.093 29.076 278.653 29.076ZM289.783 31.5H286.639L292.423 18.708H285.559V16.116H295.519V18.42L289.783 31.5ZM295.048 31.5L301.576 16.116H304.576L298.048 31.5H295.048ZM318.926 19.668C321.59 19.668 323.342 21.468 323.342 24.54V31.5H320.414V24.972C320.414 23.412 319.526 22.428 318.158 22.428C316.742 22.428 315.878 23.412 315.878 24.972V31.5H312.95V24.972C312.95 23.412 312.062 22.428 310.694 22.428C309.278 22.428 308.414 23.412 308.414 24.972V31.5H305.486V20.004H308.414V21.708C309.014 20.46 310.142 19.668 311.63 19.668C313.382 19.668 314.726 20.556 315.398 22.068C315.998 20.724 317.102 19.668 318.926 19.668ZM325.905 25.764C325.905 22.404 328.545 19.668 331.881 19.668C335.217 19.668 337.881 22.404 337.881 25.764C337.881 29.1 335.217 31.836 331.881 31.836C328.545 31.836 325.905 29.1 325.905 25.764ZM334.929 25.74C334.929 23.892 333.657 22.428 331.905 22.428C330.129 22.428 328.833 23.892 328.833 25.74C328.833 27.588 330.129 29.076 331.905 29.076C333.657 29.076 334.929 27.588 334.929 25.74ZM346.716 19.668C349.38 19.668 351.084 21.54 351.084 24.54V31.5H348.156V24.972C348.156 23.412 347.244 22.428 345.828 22.428C344.364 22.428 343.476 23.412 343.476 24.972V31.5H340.548V20.004H343.476V21.588C344.1 20.388 345.228 19.668 346.716 19.668ZM353.223 22.596V20.004H355.263V17.028H358.191V20.004H361.311V22.596H358.215V27.468C358.215 28.548 358.671 29.076 359.535 29.076C360.063 29.076 360.591 28.836 360.879 28.5L362.199 30.684C361.551 31.308 360.471 31.836 359.055 31.836C356.727 31.836 355.239 30.372 355.239 27.564V22.596H353.223ZM370.482 19.668C373.146 19.668 374.85 21.54 374.85 24.54V31.5H371.922V24.972C371.922 23.412 371.01 22.428 369.594 22.428C368.13 22.428 367.242 23.412 367.242 24.972V31.5H364.314V14.988H367.242V21.588C367.866 20.388 368.994 19.668 370.482 19.668ZM388.45 16.692C387.346 16.692 386.722 17.412 386.722 18.708V20.004H389.77V21.9H386.722V31.5H384.61V21.9H382.786V20.004H384.61V18.684C384.61 16.14 386.05 14.7 388.258 14.7C389.602 14.7 390.514 15.108 391.162 15.804L390.082 17.364C389.698 16.98 389.098 16.692 388.45 16.692ZM390.927 25.74C390.927 22.404 393.495 19.716 396.783 19.716C400.095 19.716 402.663 22.404 402.663 25.74C402.663 29.076 400.095 31.788 396.783 31.788C393.495 31.788 390.927 29.076 390.927 25.74ZM400.527 25.74C400.527 23.484 398.967 21.708 396.807 21.708C394.647 21.708 393.063 23.484 393.063 25.74C393.063 27.972 394.647 29.796 396.807 29.796C398.967 29.796 400.527 27.972 400.527 25.74ZM410.963 19.716C411.683 19.716 412.307 19.884 412.715 20.22L411.827 22.212C411.443 21.948 410.891 21.756 410.339 21.756C408.947 21.756 408.083 22.956 408.083 24.876V31.5H405.947V20.004H408.083V21.78C408.659 20.532 409.643 19.716 410.963 19.716ZM425.944 31.5H423.808V18.684L421.048 21.372L419.776 19.956L423.784 16.116H425.944V31.5ZM436.992 20.004L440.952 28.98L444.936 20.004H447L439.92 36.204H437.808L439.872 31.476L434.832 20.004H436.992ZM459.654 25.524C459.654 25.812 459.63 26.124 459.582 26.292H450.462C450.702 28.356 452.214 29.892 454.398 29.892C455.694 29.892 456.846 29.388 457.614 28.62L458.742 30.084C457.806 31.092 456.174 31.788 454.326 31.788C450.822 31.788 448.302 29.076 448.302 25.74C448.302 22.404 450.726 19.716 453.99 19.716C457.206 19.716 459.654 22.284 459.654 25.524ZM454.014 21.54C452.142 21.54 450.822 22.956 450.51 24.876H457.47C457.134 22.74 455.814 21.54 454.014 21.54ZM471.472 21.996V20.004H473.608V31.5H471.472V29.436C470.608 30.852 469.24 31.788 467.44 31.788C464.32 31.788 461.872 29.22 461.872 25.74C461.872 22.332 464.224 19.716 467.44 19.716C469.24 19.716 470.608 20.58 471.472 21.996ZM467.752 29.796C469.912 29.796 471.472 27.972 471.472 25.74C471.472 23.484 469.912 21.708 467.752 21.708C465.592 21.708 464.008 23.484 464.008 25.74C464.008 27.972 465.592 29.796 467.752 29.796ZM482.752 19.716C483.472 19.716 484.096 19.884 484.504 20.22L483.616 22.212C483.232 21.948 482.68 21.756 482.128 21.756C480.736 21.756 479.872 22.956 479.872 24.876V31.5H477.736V20.004H479.872V21.78C480.448 20.532 481.432 19.716 482.752 19.716Z" fill="#220046"/>
</g>
<defs>
<filter id="filter0_d_786_398898" x="0" y="0" width="501" height="52" filterUnits="userSpaceOnUse" color-interpolation-filters="sRGB">
<feFlood flood-opacity="0" result="BackgroundImageFix"/>
<feColorMatrix in="SourceAlpha" type="matrix" values="0 0 0 0 0 0 0 0 0 0 0 0 0 0 0 0 0 0 127 0" result="hardAlpha"/>
<feOffset dy="2"/>
<feGaussianBlur stdDeviation="2"/>
<feComposite in2="hardAlpha" operator="out"/>
<feColorMatrix type="matrix" values="0 0 0 0 0 0 0 0 0 0 0 0 0 0 0 0 0 0 0.25 0"/>
<feBlend mode="normal" in2="BackgroundImageFix" result="effect1_dropShadow_786_398898"/>
<feBlend mode="normal" in="SourceGraphic" in2="effect1_dropShadow_786_398898" result="shape"/>
</filter>
<linearGradient id="paint0_linear_786_398898" x1="497" y1="24" x2="3.99999" y2="23.9999" gradientUnits="userSpaceOnUse">
<stop stop-color="#FFA800"/>
<stop offset="0.453125" stop-color="#FFF389"/>
<stop offset="1" stop-color="#FFA800"/>
</linearGradient>
</defs>
</svg>
